<svg width="215" height="299" viewBox="0 0 215 299" fill="none" xmlns="http://www.w3.org/2000/svg">
<path d="M86.3327 218.708L87.2627 218.168V217.018C87.2627 217.708 86.9127 218.338 86.3327 218.708ZM213.313 96.0776C213.243 96.0376 213.173 96.0076 213.103 95.9776C213.193 96.0176 213.273 96.0576 213.353 96.1076C213.343 96.0976 213.323 96.0876 213.313 96.0776ZM195.893 81.3676L195.823 81.3276C195.223 81.0176 194.503 81.0176 193.913 81.3576L190.853 83.0875L193.893 84.8276C194.213 85.0076 194.553 85.0975 194.893 85.0975C195.583 85.0975 196.263 84.7375 196.623 84.0975C196.803 83.7775 196.893 83.4375 196.893 83.0975C196.893 82.4075 196.533 81.7376 195.893 81.3676Z" fill="#0DF3B2"/>
<path d="M86.3327 218.708L87.2627 218.168V217.018C87.2627 217.708 86.9127 218.338 86.3327 218.708Z" fill="#0DF3B2"/>
<path d="M214.283 97.5476C214.293 97.6276 214.303 97.7175 214.303 97.8075V97.6975C214.303 97.6975 214.303 97.5976 214.283 97.5476Z" fill="#0DF3B2"/>
<path d="M214.283 97.5476C214.273 97.4576 214.253 97.3676 214.233 97.2876C214.223 97.2276 214.203 97.1775 214.183 97.1275C214.153 97.0475 214.123 96.9776 214.083 96.9076C214.053 96.8376 214.013 96.7676 213.963 96.7076C213.913 96.6176 213.843 96.5376 213.773 96.4576C213.713 96.3876 213.643 96.3275 213.573 96.2675C213.503 96.2075 213.433 96.1576 213.353 96.1076C213.273 96.0576 213.193 96.0176 213.103 95.9776L213.013 95.9376L196.893 88.9276L196.893 83.0975C196.893 82.4075 196.533 81.7376 195.893 81.3676L195.823 81.3276L54.6227 0.267554C54.0127 -0.0824464 53.2627 -0.0924464 52.6427 0.257554L1.18274 29.4076C1.18274 29.4076 1.18274 29.4076 1.18274 29.4176C1.02274 29.5076 0.882739 29.6176 0.762739 29.7376C0.582739 29.9276 0.432739 30.1476 0.332739 30.3876C0.292739 30.4876 0.252739 30.5976 0.232739 30.7076C0.222739 30.7476 0.212739 30.7776 0.212739 30.8176C0.192739 30.9276 0.182739 31.0376 0.182739 31.1476V267.888C0.182739 268.578 0.532739 269.218 1.11274 269.578L43.7627 296.448C44.0927 296.658 44.4627 296.758 44.8327 296.758C44.9127 296.758 45.0027 296.748 45.0827 296.738C45.2527 296.718 45.4127 296.678 45.5727 296.618C45.6527 296.588 45.7227 296.548 45.8027 296.508C45.8027 296.508 45.8027 296.498 45.8227 296.498L85.2827 274.108L126.803 297.808C127.113 297.978 127.453 298.068 127.793 298.068C127.973 298.068 128.153 298.038 128.333 297.988C128.383 297.978 128.443 297.958 128.493 297.938C128.673 297.878 128.843 297.778 129.003 297.668L176.553 269.608C177.163 269.248 177.533 268.598 177.533 267.888V165.908L213.313 145.188C213.933 144.828 214.313 144.168 214.313 143.458V97.8075C214.313 97.7175 214.313 97.6276 214.293 97.5476H214.283ZM85.2627 167.768L49.0827 147.268L92.3627 125.738C103.783 132.288 115.223 138.858 125.613 144.818L85.2627 167.768ZM87.2627 270.648V218.168L86.3327 218.708C86.9127 218.338 87.2627 217.708 87.2627 217.018V218.168L124.443 196.648L125.733 292.598L87.2627 270.648ZM141.963 149.598C138.403 147.558 134.613 145.378 130.633 143.088C119.233 136.548 106.363 129.158 93.5527 121.808C93.5127 121.788 93.4727 121.758 93.4227 121.728C76.1927 111.838 59.1027 102.028 45.8227 94.4076C45.2027 94.0576 44.4427 94.0575 43.8227 94.4175C43.2027 94.7775 42.8227 95.4376 42.8227 96.1476V147.158C42.8227 147.248 42.8327 147.338 42.8427 147.428C42.8727 147.638 42.9327 147.848 43.0327 148.048C43.0427 148.048 43.0427 148.078 43.0527 148.088C43.0927 148.158 43.1327 148.228 43.1827 148.298C43.2227 148.358 43.2627 148.418 43.3127 148.468C43.4027 148.578 43.5127 148.668 43.6227 148.748C43.6827 148.808 43.7527 148.848 43.8327 148.898H43.8427L83.2627 171.238L83.2627 213.418L45.8827 190.108C45.2627 189.728 44.4927 189.708 43.8527 190.058C43.2127 190.408 42.8227 191.078 42.8227 191.808V291.138L4.17274 266.788V34.5876C25.3727 46.6676 69.9327 72.0375 104.843 91.9175L141.963 113.048V149.598ZM143.973 109.588L106.823 88.4376C71.9627 68.5776 27.4627 43.2576 6.23274 31.1476L53.6227 4.29755L190.853 83.0875L143.973 109.588ZM196.893 104.268V93.2876L207.833 98.0476L196.893 104.268Z" fill="#0DF3B2"/>
<path d="M0.322739 30.3876C0.422739 30.1476 0.562739 29.9176 0.752739 29.7376C0.572739 29.9276 0.422739 30.1476 0.322739 30.3876Z" fill="#0DF3B2"/>
</svg>
